G04 MADE WITH FRITZING*
G04 WWW.FRITZING.ORG*
G04 DOUBLE SIDED*
G04 HOLES PLATED*
G04 CONTOUR ON CENTER OF CONTOUR VECTOR*
%ASAXBY*%
%FSLAX23Y23*%
%MOIN*%
%OFA0B0*%
%SFA1.0B1.0*%
%ADD10C,0.049370*%
%ADD11C,0.085000*%
%ADD12C,0.084000*%
%ADD13C,0.090000*%
%ADD14C,0.088000*%
%ADD15R,0.085000X0.085000*%
%ADD16R,0.001000X0.001000*%
%LNMASK0*%
G90*
G70*
G54D10*
X544Y521D03*
X608Y514D03*
X961Y530D03*
X880Y883D03*
X712Y472D03*
X665Y829D03*
X632Y667D03*
X743Y866D03*
G54D11*
X250Y1268D03*
X550Y1268D03*
X250Y1168D03*
X550Y1168D03*
X250Y1068D03*
X550Y1068D03*
X250Y968D03*
X550Y968D03*
X531Y437D03*
X431Y437D03*
X331Y437D03*
X819Y348D03*
X719Y348D03*
X619Y348D03*
G54D12*
X845Y1273D03*
X845Y1017D03*
X667Y1273D03*
X667Y1017D03*
G54D13*
X1066Y1243D03*
X1066Y1098D03*
X1066Y953D03*
X1062Y761D03*
X1062Y616D03*
X1062Y471D03*
G54D11*
X714Y207D03*
X714Y107D03*
X168Y418D03*
X168Y518D03*
G54D13*
X170Y654D03*
X170Y805D03*
X1062Y286D03*
X1062Y134D03*
G54D14*
X126Y1015D03*
X126Y1115D03*
G54D10*
X856Y720D03*
G54D15*
X250Y1268D03*
X714Y207D03*
X168Y418D03*
G54D16*
X1020Y1288D02*
X1109Y1288D01*
X1020Y1287D02*
X1109Y1287D01*
X1020Y1286D02*
X1109Y1286D01*
X1020Y1285D02*
X1109Y1285D01*
X1020Y1284D02*
X1109Y1284D01*
X1020Y1283D02*
X1109Y1283D01*
X1020Y1282D02*
X1109Y1282D01*
X1020Y1281D02*
X1109Y1281D01*
X1020Y1280D02*
X1109Y1280D01*
X1020Y1279D02*
X1109Y1279D01*
X1020Y1278D02*
X1109Y1278D01*
X1020Y1277D02*
X1109Y1277D01*
X1020Y1276D02*
X1109Y1276D01*
X1020Y1275D02*
X1109Y1275D01*
X1020Y1274D02*
X1109Y1274D01*
X1020Y1273D02*
X1109Y1273D01*
X1020Y1272D02*
X1109Y1272D01*
X1020Y1271D02*
X1109Y1271D01*
X1020Y1270D02*
X1109Y1270D01*
X1020Y1269D02*
X1109Y1269D01*
X1020Y1268D02*
X1109Y1268D01*
X1020Y1267D02*
X1109Y1267D01*
X1020Y1266D02*
X1109Y1266D01*
X1020Y1265D02*
X1109Y1265D01*
X1020Y1264D02*
X1109Y1264D01*
X1020Y1263D02*
X1109Y1263D01*
X1020Y1262D02*
X1060Y1262D01*
X1069Y1262D02*
X1109Y1262D01*
X1020Y1261D02*
X1057Y1261D01*
X1073Y1261D02*
X1109Y1261D01*
X1020Y1260D02*
X1055Y1260D01*
X1075Y1260D02*
X1109Y1260D01*
X1020Y1259D02*
X1053Y1259D01*
X1076Y1259D02*
X1109Y1259D01*
X1020Y1258D02*
X1052Y1258D01*
X1077Y1258D02*
X1109Y1258D01*
X1020Y1257D02*
X1051Y1257D01*
X1078Y1257D02*
X1109Y1257D01*
X1020Y1256D02*
X1050Y1256D01*
X1079Y1256D02*
X1109Y1256D01*
X1020Y1255D02*
X1049Y1255D01*
X1080Y1255D02*
X1109Y1255D01*
X1020Y1254D02*
X1049Y1254D01*
X1081Y1254D02*
X1109Y1254D01*
X1020Y1253D02*
X1048Y1253D01*
X1081Y1253D02*
X1109Y1253D01*
X1020Y1252D02*
X1047Y1252D01*
X1082Y1252D02*
X1109Y1252D01*
X1020Y1251D02*
X1047Y1251D01*
X1082Y1251D02*
X1109Y1251D01*
X1020Y1250D02*
X1047Y1250D01*
X1083Y1250D02*
X1109Y1250D01*
X1020Y1249D02*
X1046Y1249D01*
X1083Y1249D02*
X1109Y1249D01*
X1020Y1248D02*
X1046Y1248D01*
X1083Y1248D02*
X1109Y1248D01*
X1020Y1247D02*
X1046Y1247D01*
X1084Y1247D02*
X1109Y1247D01*
X1020Y1246D02*
X1046Y1246D01*
X1084Y1246D02*
X1109Y1246D01*
X1020Y1245D02*
X1045Y1245D01*
X1084Y1245D02*
X1109Y1245D01*
X1020Y1244D02*
X1045Y1244D01*
X1084Y1244D02*
X1109Y1244D01*
X1020Y1243D02*
X1045Y1243D01*
X1084Y1243D02*
X1109Y1243D01*
X1020Y1242D02*
X1045Y1242D01*
X1084Y1242D02*
X1109Y1242D01*
X1020Y1241D02*
X1046Y1241D01*
X1084Y1241D02*
X1109Y1241D01*
X1020Y1240D02*
X1046Y1240D01*
X1084Y1240D02*
X1109Y1240D01*
X1020Y1239D02*
X1046Y1239D01*
X1083Y1239D02*
X1109Y1239D01*
X1020Y1238D02*
X1046Y1238D01*
X1083Y1238D02*
X1109Y1238D01*
X1020Y1237D02*
X1047Y1237D01*
X1083Y1237D02*
X1109Y1237D01*
X1020Y1236D02*
X1047Y1236D01*
X1082Y1236D02*
X1109Y1236D01*
X1020Y1235D02*
X1048Y1235D01*
X1082Y1235D02*
X1109Y1235D01*
X1020Y1234D02*
X1048Y1234D01*
X1081Y1234D02*
X1109Y1234D01*
X1020Y1233D02*
X1049Y1233D01*
X1080Y1233D02*
X1109Y1233D01*
X1020Y1232D02*
X1050Y1232D01*
X1080Y1232D02*
X1109Y1232D01*
X1020Y1231D02*
X1051Y1231D01*
X1079Y1231D02*
X1109Y1231D01*
X1020Y1230D02*
X1052Y1230D01*
X1078Y1230D02*
X1109Y1230D01*
X1020Y1229D02*
X1053Y1229D01*
X1077Y1229D02*
X1109Y1229D01*
X1020Y1228D02*
X1054Y1228D01*
X1075Y1228D02*
X1109Y1228D01*
X1020Y1227D02*
X1056Y1227D01*
X1073Y1227D02*
X1109Y1227D01*
X1020Y1226D02*
X1059Y1226D01*
X1071Y1226D02*
X1109Y1226D01*
X1020Y1225D02*
X1109Y1225D01*
X1020Y1224D02*
X1109Y1224D01*
X1020Y1223D02*
X1109Y1223D01*
X1020Y1222D02*
X1109Y1222D01*
X1020Y1221D02*
X1109Y1221D01*
X1020Y1220D02*
X1109Y1220D01*
X1020Y1219D02*
X1109Y1219D01*
X1020Y1218D02*
X1109Y1218D01*
X1020Y1217D02*
X1109Y1217D01*
X1020Y1216D02*
X1109Y1216D01*
X1020Y1215D02*
X1109Y1215D01*
X1020Y1214D02*
X1109Y1214D01*
X1020Y1213D02*
X1109Y1213D01*
X1020Y1212D02*
X1109Y1212D01*
X1020Y1211D02*
X1109Y1211D01*
X1020Y1210D02*
X1109Y1210D01*
X1020Y1209D02*
X1109Y1209D01*
X1020Y1208D02*
X1109Y1208D01*
X1020Y1207D02*
X1109Y1207D01*
X1020Y1206D02*
X1109Y1206D01*
X1020Y1205D02*
X1109Y1205D01*
X1020Y1204D02*
X1109Y1204D01*
X1020Y1203D02*
X1109Y1203D01*
X1020Y1202D02*
X1109Y1202D01*
X1020Y1201D02*
X1109Y1201D01*
X1020Y1200D02*
X1109Y1200D01*
X1020Y1199D02*
X1109Y1199D01*
X1017Y807D02*
X1105Y807D01*
X1017Y806D02*
X1106Y806D01*
X1017Y805D02*
X1106Y805D01*
X1017Y804D02*
X1106Y804D01*
X1017Y803D02*
X1106Y803D01*
X1017Y802D02*
X1106Y802D01*
X1017Y801D02*
X1106Y801D01*
X1017Y800D02*
X1106Y800D01*
X1017Y799D02*
X1106Y799D01*
X1017Y798D02*
X1106Y798D01*
X1017Y797D02*
X1106Y797D01*
X1017Y796D02*
X1106Y796D01*
X1017Y795D02*
X1106Y795D01*
X1017Y794D02*
X1106Y794D01*
X1017Y793D02*
X1106Y793D01*
X1017Y792D02*
X1106Y792D01*
X1017Y791D02*
X1106Y791D01*
X1017Y790D02*
X1106Y790D01*
X1017Y789D02*
X1106Y789D01*
X1017Y788D02*
X1106Y788D01*
X1017Y787D02*
X1106Y787D01*
X1017Y786D02*
X1106Y786D01*
X1017Y785D02*
X1106Y785D01*
X1017Y784D02*
X1106Y784D01*
X1017Y783D02*
X1106Y783D01*
X1017Y782D02*
X1106Y782D01*
X1017Y781D02*
X1106Y781D01*
X1017Y780D02*
X1055Y780D01*
X1067Y780D02*
X1106Y780D01*
X1017Y779D02*
X1053Y779D01*
X1070Y779D02*
X1106Y779D01*
X1017Y778D02*
X1051Y778D01*
X1072Y778D02*
X1106Y778D01*
X1017Y777D02*
X1049Y777D01*
X1073Y777D02*
X1106Y777D01*
X1017Y776D02*
X1048Y776D01*
X1074Y776D02*
X1106Y776D01*
X1017Y775D02*
X1047Y775D01*
X1075Y775D02*
X1106Y775D01*
X1017Y774D02*
X1046Y774D01*
X1076Y774D02*
X1106Y774D01*
X1017Y773D02*
X1046Y773D01*
X1077Y773D02*
X1106Y773D01*
X1017Y772D02*
X1045Y772D01*
X1077Y772D02*
X1106Y772D01*
X1017Y771D02*
X1044Y771D01*
X1078Y771D02*
X1106Y771D01*
X1017Y770D02*
X1044Y770D01*
X1079Y770D02*
X1106Y770D01*
X1017Y769D02*
X1043Y769D01*
X1079Y769D02*
X1106Y769D01*
X1017Y768D02*
X1043Y768D01*
X1079Y768D02*
X1106Y768D01*
X1017Y767D02*
X1043Y767D01*
X1080Y767D02*
X1106Y767D01*
X1017Y766D02*
X1042Y766D01*
X1080Y766D02*
X1106Y766D01*
X1017Y765D02*
X1042Y765D01*
X1080Y765D02*
X1106Y765D01*
X1017Y764D02*
X1042Y764D01*
X1080Y764D02*
X1106Y764D01*
X1017Y763D02*
X1042Y763D01*
X1080Y763D02*
X1106Y763D01*
X1017Y762D02*
X1042Y762D01*
X1081Y762D02*
X1106Y762D01*
X1017Y761D02*
X1042Y761D01*
X1080Y761D02*
X1106Y761D01*
X1017Y760D02*
X1042Y760D01*
X1080Y760D02*
X1106Y760D01*
X1017Y759D02*
X1042Y759D01*
X1080Y759D02*
X1106Y759D01*
X1017Y758D02*
X1042Y758D01*
X1080Y758D02*
X1106Y758D01*
X1017Y757D02*
X1043Y757D01*
X1080Y757D02*
X1106Y757D01*
X1017Y756D02*
X1043Y756D01*
X1079Y756D02*
X1106Y756D01*
X1017Y755D02*
X1043Y755D01*
X1079Y755D02*
X1106Y755D01*
X1017Y754D02*
X1044Y754D01*
X1079Y754D02*
X1106Y754D01*
X1017Y753D02*
X1044Y753D01*
X1078Y753D02*
X1106Y753D01*
X1017Y752D02*
X1045Y752D01*
X1077Y752D02*
X1106Y752D01*
X1017Y751D02*
X1046Y751D01*
X1077Y751D02*
X1106Y751D01*
X1017Y750D02*
X1046Y750D01*
X1076Y750D02*
X1106Y750D01*
X1017Y749D02*
X1047Y749D01*
X1075Y749D02*
X1106Y749D01*
X1017Y748D02*
X1048Y748D01*
X1074Y748D02*
X1106Y748D01*
X1017Y747D02*
X1050Y747D01*
X1073Y747D02*
X1106Y747D01*
X1017Y746D02*
X1051Y746D01*
X1071Y746D02*
X1106Y746D01*
X1017Y745D02*
X1053Y745D01*
X1070Y745D02*
X1106Y745D01*
X1017Y744D02*
X1056Y744D01*
X1067Y744D02*
X1106Y744D01*
X1017Y743D02*
X1106Y743D01*
X1017Y742D02*
X1106Y742D01*
X1017Y741D02*
X1106Y741D01*
X1017Y740D02*
X1106Y740D01*
X1017Y739D02*
X1106Y739D01*
X1017Y738D02*
X1106Y738D01*
X1017Y737D02*
X1106Y737D01*
X1017Y736D02*
X1106Y736D01*
X1017Y735D02*
X1106Y735D01*
X1017Y734D02*
X1106Y734D01*
X1017Y733D02*
X1106Y733D01*
X1017Y732D02*
X1106Y732D01*
X1017Y731D02*
X1106Y731D01*
X1017Y730D02*
X1106Y730D01*
X1017Y729D02*
X1106Y729D01*
X1017Y728D02*
X1106Y728D01*
X1017Y727D02*
X1106Y727D01*
X1017Y726D02*
X1106Y726D01*
X1017Y725D02*
X1106Y725D01*
X1017Y724D02*
X1106Y724D01*
X1017Y723D02*
X1106Y723D01*
X1017Y722D02*
X1106Y722D01*
X1017Y721D02*
X1106Y721D01*
X1017Y720D02*
X1106Y720D01*
X1017Y719D02*
X1106Y719D01*
X1017Y718D02*
X1106Y718D01*
X125Y699D02*
X214Y699D01*
X125Y698D02*
X214Y698D01*
X125Y697D02*
X214Y697D01*
X125Y696D02*
X214Y696D01*
X125Y695D02*
X214Y695D01*
X125Y694D02*
X214Y694D01*
X125Y693D02*
X214Y693D01*
X125Y692D02*
X214Y692D01*
X125Y691D02*
X214Y691D01*
X125Y690D02*
X214Y690D01*
X125Y689D02*
X214Y689D01*
X125Y688D02*
X214Y688D01*
X125Y687D02*
X214Y687D01*
X125Y686D02*
X214Y686D01*
X125Y685D02*
X214Y685D01*
X125Y684D02*
X214Y684D01*
X125Y683D02*
X214Y683D01*
X125Y682D02*
X214Y682D01*
X125Y681D02*
X214Y681D01*
X125Y680D02*
X214Y680D01*
X125Y679D02*
X214Y679D01*
X125Y678D02*
X214Y678D01*
X125Y677D02*
X214Y677D01*
X125Y676D02*
X214Y676D01*
X125Y675D02*
X214Y675D01*
X125Y674D02*
X214Y674D01*
X125Y673D02*
X166Y673D01*
X173Y673D02*
X214Y673D01*
X125Y672D02*
X162Y672D01*
X177Y672D02*
X214Y672D01*
X125Y671D02*
X161Y671D01*
X179Y671D02*
X214Y671D01*
X125Y670D02*
X159Y670D01*
X181Y670D02*
X214Y670D01*
X125Y669D02*
X158Y669D01*
X182Y669D02*
X214Y669D01*
X125Y668D02*
X156Y668D01*
X183Y668D02*
X214Y668D01*
X125Y667D02*
X156Y667D01*
X184Y667D02*
X214Y667D01*
X125Y666D02*
X155Y666D01*
X185Y666D02*
X214Y666D01*
X125Y665D02*
X154Y665D01*
X186Y665D02*
X214Y665D01*
X125Y664D02*
X153Y664D01*
X187Y664D02*
X214Y664D01*
X125Y663D02*
X153Y663D01*
X187Y663D02*
X214Y663D01*
X125Y662D02*
X152Y662D01*
X188Y662D02*
X214Y662D01*
X125Y661D02*
X152Y661D01*
X188Y661D02*
X214Y661D01*
X125Y660D02*
X152Y660D01*
X188Y660D02*
X214Y660D01*
X125Y659D02*
X151Y659D01*
X189Y659D02*
X214Y659D01*
X125Y658D02*
X151Y658D01*
X189Y658D02*
X214Y658D01*
X125Y657D02*
X151Y657D01*
X189Y657D02*
X214Y657D01*
X125Y656D02*
X151Y656D01*
X189Y656D02*
X214Y656D01*
X125Y655D02*
X151Y655D01*
X189Y655D02*
X214Y655D01*
X125Y654D02*
X151Y654D01*
X189Y654D02*
X214Y654D01*
X125Y653D02*
X151Y653D01*
X189Y653D02*
X214Y653D01*
X125Y652D02*
X151Y652D01*
X189Y652D02*
X214Y652D01*
X125Y651D02*
X151Y651D01*
X189Y651D02*
X214Y651D01*
X125Y650D02*
X151Y650D01*
X188Y650D02*
X214Y650D01*
X125Y649D02*
X152Y649D01*
X188Y649D02*
X214Y649D01*
X125Y648D02*
X152Y648D01*
X188Y648D02*
X214Y648D01*
X125Y647D02*
X152Y647D01*
X187Y647D02*
X214Y647D01*
X125Y646D02*
X153Y646D01*
X187Y646D02*
X214Y646D01*
X125Y645D02*
X153Y645D01*
X186Y645D02*
X214Y645D01*
X125Y644D02*
X154Y644D01*
X186Y644D02*
X214Y644D01*
X125Y643D02*
X155Y643D01*
X185Y643D02*
X214Y643D01*
X125Y642D02*
X156Y642D01*
X184Y642D02*
X214Y642D01*
X125Y641D02*
X157Y641D01*
X183Y641D02*
X214Y641D01*
X125Y640D02*
X158Y640D01*
X182Y640D02*
X214Y640D01*
X125Y639D02*
X159Y639D01*
X181Y639D02*
X214Y639D01*
X125Y638D02*
X161Y638D01*
X179Y638D02*
X214Y638D01*
X125Y637D02*
X164Y637D01*
X176Y637D02*
X214Y637D01*
X125Y636D02*
X214Y636D01*
X125Y635D02*
X214Y635D01*
X125Y634D02*
X214Y634D01*
X125Y633D02*
X214Y633D01*
X125Y632D02*
X214Y632D01*
X125Y631D02*
X214Y631D01*
X125Y630D02*
X214Y630D01*
X125Y629D02*
X214Y629D01*
X125Y628D02*
X214Y628D01*
X125Y627D02*
X214Y627D01*
X125Y626D02*
X214Y626D01*
X125Y625D02*
X214Y625D01*
X125Y624D02*
X214Y624D01*
X125Y623D02*
X214Y623D01*
X125Y622D02*
X214Y622D01*
X125Y621D02*
X214Y621D01*
X125Y620D02*
X214Y620D01*
X125Y619D02*
X214Y619D01*
X125Y618D02*
X214Y618D01*
X125Y617D02*
X214Y617D01*
X125Y616D02*
X214Y616D01*
X125Y615D02*
X214Y615D01*
X125Y614D02*
X214Y614D01*
X125Y613D02*
X214Y613D01*
X125Y612D02*
X214Y612D01*
X125Y611D02*
X214Y611D01*
X126Y610D02*
X214Y610D01*
X1016Y332D02*
X1105Y332D01*
X1016Y331D02*
X1105Y331D01*
X1016Y330D02*
X1105Y330D01*
X1016Y329D02*
X1105Y329D01*
X1016Y328D02*
X1105Y328D01*
X1016Y327D02*
X1105Y327D01*
X1016Y326D02*
X1105Y326D01*
X1016Y325D02*
X1105Y325D01*
X1016Y324D02*
X1105Y324D01*
X1016Y323D02*
X1105Y323D01*
X1016Y322D02*
X1105Y322D01*
X1016Y321D02*
X1105Y321D01*
X1016Y320D02*
X1105Y320D01*
X1016Y319D02*
X1105Y319D01*
X1016Y318D02*
X1105Y318D01*
X1016Y317D02*
X1105Y317D01*
X1016Y316D02*
X1105Y316D01*
X1016Y315D02*
X1105Y315D01*
X1016Y314D02*
X1105Y314D01*
X1016Y313D02*
X1105Y313D01*
X1016Y312D02*
X1105Y312D01*
X1016Y311D02*
X1105Y311D01*
X1016Y310D02*
X1105Y310D01*
X1016Y309D02*
X1105Y309D01*
X1016Y308D02*
X1105Y308D01*
X1016Y307D02*
X1105Y307D01*
X1016Y306D02*
X1058Y306D01*
X1064Y306D02*
X1105Y306D01*
X1016Y305D02*
X1054Y305D01*
X1068Y305D02*
X1105Y305D01*
X1016Y304D02*
X1052Y304D01*
X1070Y304D02*
X1105Y304D01*
X1016Y303D02*
X1050Y303D01*
X1072Y303D02*
X1105Y303D01*
X1016Y302D02*
X1049Y302D01*
X1073Y302D02*
X1105Y302D01*
X1016Y301D02*
X1048Y301D01*
X1074Y301D02*
X1105Y301D01*
X1016Y300D02*
X1047Y300D01*
X1075Y300D02*
X1105Y300D01*
X1016Y299D02*
X1046Y299D01*
X1076Y299D02*
X1105Y299D01*
X1016Y298D02*
X1045Y298D01*
X1077Y298D02*
X1105Y298D01*
X1016Y297D02*
X1044Y297D01*
X1077Y297D02*
X1105Y297D01*
X1016Y296D02*
X1044Y296D01*
X1078Y296D02*
X1105Y296D01*
X1016Y295D02*
X1043Y295D01*
X1079Y295D02*
X1105Y295D01*
X1016Y294D02*
X1043Y294D01*
X1079Y294D02*
X1105Y294D01*
X1016Y293D02*
X1043Y293D01*
X1079Y293D02*
X1105Y293D01*
X1016Y292D02*
X1042Y292D01*
X1080Y292D02*
X1105Y292D01*
X1016Y291D02*
X1042Y291D01*
X1080Y291D02*
X1105Y291D01*
X1016Y290D02*
X1042Y290D01*
X1080Y290D02*
X1105Y290D01*
X1016Y289D02*
X1042Y289D01*
X1080Y289D02*
X1105Y289D01*
X1016Y288D02*
X1042Y288D01*
X1080Y288D02*
X1105Y288D01*
X1016Y287D02*
X1042Y287D01*
X1080Y287D02*
X1105Y287D01*
X1016Y286D02*
X1042Y286D01*
X1080Y286D02*
X1105Y286D01*
X1016Y285D02*
X1042Y285D01*
X1080Y285D02*
X1105Y285D01*
X1016Y284D02*
X1042Y284D01*
X1080Y284D02*
X1105Y284D01*
X1016Y283D02*
X1042Y283D01*
X1079Y283D02*
X1105Y283D01*
X1016Y282D02*
X1043Y282D01*
X1079Y282D02*
X1105Y282D01*
X1016Y281D02*
X1043Y281D01*
X1079Y281D02*
X1105Y281D01*
X1016Y280D02*
X1043Y280D01*
X1078Y280D02*
X1105Y280D01*
X1016Y279D02*
X1044Y279D01*
X1078Y279D02*
X1105Y279D01*
X1016Y278D02*
X1044Y278D01*
X1077Y278D02*
X1105Y278D01*
X1016Y277D02*
X1045Y277D01*
X1077Y277D02*
X1105Y277D01*
X1016Y276D02*
X1046Y276D01*
X1076Y276D02*
X1105Y276D01*
X1016Y275D02*
X1047Y275D01*
X1075Y275D02*
X1105Y275D01*
X1016Y274D02*
X1048Y274D01*
X1074Y274D02*
X1105Y274D01*
X1016Y273D02*
X1049Y273D01*
X1073Y273D02*
X1105Y273D01*
X1016Y272D02*
X1050Y272D01*
X1072Y272D02*
X1105Y272D01*
X1016Y271D02*
X1052Y271D01*
X1070Y271D02*
X1105Y271D01*
X1016Y270D02*
X1054Y270D01*
X1067Y270D02*
X1105Y270D01*
X1016Y269D02*
X1105Y269D01*
X1016Y268D02*
X1105Y268D01*
X1016Y267D02*
X1105Y267D01*
X1016Y266D02*
X1105Y266D01*
X1016Y265D02*
X1105Y265D01*
X1016Y264D02*
X1105Y264D01*
X1016Y263D02*
X1105Y263D01*
X1016Y262D02*
X1105Y262D01*
X1016Y261D02*
X1105Y261D01*
X1016Y260D02*
X1105Y260D01*
X1016Y259D02*
X1105Y259D01*
X1016Y258D02*
X1105Y258D01*
X1016Y257D02*
X1105Y257D01*
X1016Y256D02*
X1105Y256D01*
X1016Y255D02*
X1105Y255D01*
X1016Y254D02*
X1105Y254D01*
X1016Y253D02*
X1105Y253D01*
X1016Y252D02*
X1105Y252D01*
X1016Y251D02*
X1105Y251D01*
X1016Y250D02*
X1105Y250D01*
X1016Y249D02*
X1105Y249D01*
X1016Y248D02*
X1105Y248D01*
X1016Y247D02*
X1105Y247D01*
X1016Y246D02*
X1105Y246D01*
X1016Y245D02*
X1105Y245D01*
X1016Y244D02*
X1105Y244D01*
X1016Y243D02*
X1105Y243D01*
D02*
G04 End of Mask0*
M02*