; NON-PLATED HOLES START AT T1
; THROUGH (PLATED) HOLES START AT T100
M48
INCH
T100C0.038000
T101C0.035000
T102C0.040000
T103C0.015748
T104C0.047244
%
T100
X001256Y010151
X001256Y011151
T101
X005314Y004369
X001682Y005177
X003314Y004369
X005503Y011681
X002503Y011681
X006191Y003475
X007139Y001066
X008191Y003475
X002503Y010681
X001682Y004177
X002503Y009681
X005503Y012681
X007139Y002066
X005503Y010681
X005503Y009681
X004314Y004369
X007191Y003475
X002503Y012681
T102
X008448Y012733
X006668Y012733
X006668Y010173
X008448Y010173
T103
X006076Y005143
X006650Y008287
X007425Y008660
X008800Y008829
X005440Y005209
X007117Y004717
X009607Y005303
X008557Y007201
X006318Y006673
T104
X010656Y012430
X001704Y006535
X010621Y004713
X010618Y001344
X010656Y010982
X010621Y007609
X010656Y009534
X010618Y002862
X001704Y008053
X010621Y006161
T00
M30
